# WaveFront *.obj file (generated by CINEMA 4D)

mtllib ./Seagull.mtl

v 0.55000001192093 0.80000001192093 -6.40000009536743
v 0.44999998807907 -0.25 -6.34999990463257
v 0 -0.44999998807907 -8.85000038146973
v -0.44999998807907 -0.25 -6.34999990463257
v -0.55000001192093 0.80000001192093 -6.40000009536743
v -0.60000002384186 1.04999995231628 12.30000019073486
v -2.34999990463257 2 7.25
v -1.35000002384186 -2.5 3.5
v 0.60000002384186 1.04999995231628 12.30000019073486
v 1.35000002384186 -2.5 3.5
v 2.34999990463257 2 7.25
v 1.54999995231628 -2.20000004768372 -1.60000002384186
v 2.70000004768372 2.25 0.15000000596046
v -3.15000009536743 -0.10000000149012 16.85000038146973
v 3.15000009536743 -0.10000000149012 16.85000038146973
v -2.70000004768372 2.25 0.15000000596046
v -1.54999995231628 -2.20000004768372 -1.60000002384186
v 1.39999997615814 2 6.80000019073486
v 13.5 2 -1.5
v 13.5 2 8
v 2.29999995231628 2 0
v 12.5 2 8
v 23.25 2 0.64999997615814
v 30.5 2 14
v 12.5 2 -1.5
v -13.5 2 -1.5
v -1.39999997615814 2 6.80000019073486
v -13.5 2 8
v -2.29999995231628 2 0
v -23.25 2 0.64999997615814
v -12.5 2 8
v -30.5 2 14
v -12.5 2 -1.5
# 33 vertices

vn 0.96789306402206 -0.10309686511755 -0.22924673557281
vn 0.63699579238892 -0.70473545789719 -0.312384724617
vn 0.98049354553223 -0.10139834135771 -0.16837693750858
vn 0 0 0
vn -0.75686925649643 -0.59451532363892 -0.27147835493088
vn -0.96789306402206 -0.10309687256813 -0.22924673557281
vn -0.98049354553223 -0.10139835625887 -0.16837693750858
vn -0.52184671163559 -0.77473777532578 0.35701182484627
vn -0.93635869026184 -0.32288309931755 0.13776408135891
vn -0.58841961622238 -0.78203237056732 0.20539645850658
vn 0.34082415699959 -0.86142146587372 0.37655276060104
vn 0.46016970276833 -0.87864279747009 0.12739963829517
vn 0.94873559474945 -0.299948990345 0.09965615719557
vn 0 -0.99681526422501 0.07974519580603
vn 0 0.95465534925461 -0.29771319031715
vn 0 0.89076191186905 -0.45447027683258
vn 0 0.94113665819168 -0.33802631497383
vn 0.7375899553299 -0.65433073043823 -0.16677036881447
vn 0.96901392936707 -0.17089805006981 -0.17834211885929
vn 0 -0.96951258182526 -0.24504160881042
vn 0 -0.96951258182526 -0.24504162371159
vn 0 -0.96951258182526 -0.24504162371159
vn 0 0.99107420444489 -0.13331119716167
vn 0 0.99880194664001 -0.04893499985337
vn 0 0.9827618598938 0.18487599492073
vn 0 0.99389320611954 0.1103460341692
vn -0.40014031529427 -0.88553124666214 -0.2360554933548
vn -0.97347718477249 -0.189687743783 -0.12790916860104
vn 0 0.96951258182526 0.24504162371159
vn 0 0.96951258182526 0.24504165351391
vn 0 0.96951258182526 0.24504160881042
vn 0 -1 0
vn 0 1 0
vn 0 1 0
# 34 normals

vt 0.14285714924335 0.90476191043854 0
vt 0.14285714924335 0.85714286565781 0
vt 0.03174603357911 0.8412698507309 0
vt 0.96825397014618 0.92063492536545 0
vt 0.74603176116943 0.96825397014618 0
vt 0.58730161190033 0.73015874624252 0
vt 0.34920635819435 0.74603176116943 0
vt 0.4285714328289 0.98412698507309 0
vt 1.03174602985382 -0.09523797035217 0
vt 0.95238095521927 -0.07936501502991 0
vt 1 -0.09523797035217 0
vt 1.09523808956146 -0.07936501502991 0
vt 0.14285714924335 0.44444441795349 0
vt 0.06349206715822 0.47619044780731 0
vt 0.11111111193895 0.44444441795349 0
vt 0.19047619402409 0.47619044780731 0
vt 0.98412698507309 -0.04761910438538 0
vt 1 -0.04761910438538 0
vt 0.96825397014618 -0.04761910438538 0
vt 1.03174602985382 -0.04761910438538 0
vt 0.04761904850602 0.3968254327774 0
vt 0.206349208951 0.3968254327774 0
vt 0.57142859697342 0.87301588058472 0
vt 0.49206349253654 0.82539683580399 0
vt 0.57142859697342 0.82539683580399 0
vt 0.52380955219269 0.87301588058472 0
vt 0.34920635819435 0.36507940292358 0
vt 0.36507937312126 0.42857146263123 0
vt 0.34920635819435 0.38095235824585 0
vt 0.93650794029236 0.31746029853821 0
vt 1.3968254327774 0.0793651342392 0
vt 1.55555558204651 0.76190477609634 0
vt 1.01587307453156 -0.12698411941528 0
vt 0.17460317909718 0.0793651342392 0
vt 0.61904764175415 0.31746029853821 0
vt 0.01587301678956 0.76190477609634 0
vt 0.55555558204651 -0.12698411941528 0
# 37 texture coordinates

o Mesh
usemtl material
f 1/1/1 2/2/2 3/3/3
f 4/2/5 5/1/6 3/3/7
f 6/4/8 7/5/9 8/6/10
f 9/4/11 10/6/12 11/5/13
f 4/2/5 3/3/14 2/2/2
f 1/1/15 3/3/16 5/1/17
f 12/7/18 11/5/13 10/6/12
f 12/7/18 13/8/19 11/5/13
f 9/9/20 14/10/20 6/11/21
f 9/9/20 15/12/22 14/10/20
f 2/2/2 13/8/19 12/7/18
f 2/2/2 1/1/1 13/8/19
f 16/8/23 1/1/15 5/1/17
f 16/8/23 13/8/24 1/1/15
f 9/13/25 7/14/26 6/15/25
f 9/13/25 11/16/26 7/14/26
f 17/7/27 10/6/12 8/6/10
f 17/7/27 12/7/18 10/6/12
f 13/16/24 7/14/26 11/16/26
f 13/16/24 16/14/23 7/14/26
f 16/8/28 8/6/10 7/5/9
f 16/8/28 17/7/27 8/6/10
f 4/2/5 16/8/28 5/1/6
f 4/2/5 17/7/27 16/8/28
f 2/2/2 17/7/27 4/2/5
f 2/2/2 12/7/18 17/7/27
f 8/17/10 9/18/11 6/19/8
f 8/17/10 10/20/12 9/18/11
f 14/21/29 9/13/29 6/15/30
f 14/21/29 15/22/31 9/13/29
f 18/23/32 19/24/32 20/25/32
f 18/23/32 21/26/32 19/24/32
f 19/27/33 18/28/33 20/28/34
f 19/27/33 21/29/33 18/28/33
f 22/30/32 23/31/32 24/32/32
f 22/30/32 25/33/32 23/31/32
f 23/34/33 22/35/33 24/36/34
f 23/34/33 25/37/33 22/35/33
f 26/24/32 27/23/32 28/25/32
f 26/24/32 29/26/32 27/23/32
f 27/28/33 26/27/33 28/28/33
f 27/28/33 29/29/33 26/27/33
f 30/31/32 31/30/32 32/32/32
f 30/31/32 33/33/32 31/30/32
f 31/35/33 30/34/33 32/36/33
f 31/35/33 33/37/33 30/34/33

